<mxfile host="app.diagrams.net" modified="2023-05-14T07:37:57.377Z" agent="Mozilla/5.0 (Windows NT 10.0; Win64; x64) AppleWebKit/537.36 (KHTML, like Gecko) Chrome/115.0.0.0 Safari/537.36 Edg/115.0.0.0" etag="-Cfnh6uw7pK_DLc-t1Wh" version="21.2.9" type="github">
  <diagram name="第 1 页" id="5MzyRMIl_35V3wH88u1o">
    <mxGraphModel dx="1081" dy="748" grid="1" gridSize="10" guides="1" tooltips="1" connect="1" arrows="1" fold="1" page="1" pageScale="1" pageWidth="827" pageHeight="1169" math="0" shadow="0">
      <root>
        <mxCell id="0" />
        <mxCell id="1" parent="0" />
        <mxCell id="CQMrIme-uf8Fiy_-3Lyk-1" style="rounded=0;orthogonalLoop=1;jettySize=auto;html=1;endArrow=none;endFill=0;fillColor=#ffe6cc;strokeColor=#d79b00;strokeWidth=3;" edge="1" parent="1" source="CQMrIme-uf8Fiy_-3Lyk-7" target="CQMrIme-uf8Fiy_-3Lyk-8">
          <mxGeometry relative="1" as="geometry" />
        </mxCell>
        <mxCell id="CQMrIme-uf8Fiy_-3Lyk-2" style="edgeStyle=none;shape=connector;rounded=0;orthogonalLoop=1;jettySize=auto;html=1;entryX=0;entryY=0.625;entryDx=0;entryDy=0;entryPerimeter=0;labelBackgroundColor=default;strokeColor=#d79b00;strokeWidth=3;fontFamily=Helvetica;fontSize=11;fontColor=default;endArrow=none;endFill=0;fillColor=#ffe6cc;" edge="1" parent="1" source="CQMrIme-uf8Fiy_-3Lyk-7" target="CQMrIme-uf8Fiy_-3Lyk-16">
          <mxGeometry relative="1" as="geometry" />
        </mxCell>
        <mxCell id="CQMrIme-uf8Fiy_-3Lyk-3" style="edgeStyle=none;shape=connector;rounded=0;orthogonalLoop=1;jettySize=auto;html=1;labelBackgroundColor=default;strokeColor=#d79b00;strokeWidth=3;fontFamily=Helvetica;fontSize=11;fontColor=default;endArrow=none;endFill=0;fillColor=#ffe6cc;" edge="1" parent="1" source="CQMrIme-uf8Fiy_-3Lyk-7" target="CQMrIme-uf8Fiy_-3Lyk-15">
          <mxGeometry relative="1" as="geometry" />
        </mxCell>
        <mxCell id="CQMrIme-uf8Fiy_-3Lyk-4" style="edgeStyle=none;shape=connector;rounded=0;orthogonalLoop=1;jettySize=auto;html=1;labelBackgroundColor=default;strokeColor=#d79b00;strokeWidth=3;fontFamily=Helvetica;fontSize=11;fontColor=default;endArrow=none;endFill=0;fillColor=#ffe6cc;" edge="1" parent="1" source="CQMrIme-uf8Fiy_-3Lyk-7" target="CQMrIme-uf8Fiy_-3Lyk-17">
          <mxGeometry relative="1" as="geometry" />
        </mxCell>
        <mxCell id="CQMrIme-uf8Fiy_-3Lyk-5" style="edgeStyle=none;shape=connector;rounded=0;orthogonalLoop=1;jettySize=auto;html=1;labelBackgroundColor=default;strokeColor=#d79b00;strokeWidth=3;fontFamily=Helvetica;fontSize=11;fontColor=default;endArrow=none;endFill=0;fillColor=#ffe6cc;" edge="1" parent="1" source="CQMrIme-uf8Fiy_-3Lyk-7" target="CQMrIme-uf8Fiy_-3Lyk-18">
          <mxGeometry relative="1" as="geometry" />
        </mxCell>
        <mxCell id="CQMrIme-uf8Fiy_-3Lyk-6" style="edgeStyle=none;shape=connector;rounded=0;orthogonalLoop=1;jettySize=auto;html=1;labelBackgroundColor=default;strokeColor=#d79b00;strokeWidth=3;fontFamily=Helvetica;fontSize=11;fontColor=default;endArrow=none;endFill=0;fillColor=#ffe6cc;" edge="1" parent="1" source="CQMrIme-uf8Fiy_-3Lyk-7" target="CQMrIme-uf8Fiy_-3Lyk-19">
          <mxGeometry relative="1" as="geometry" />
        </mxCell>
        <mxCell id="CQMrIme-uf8Fiy_-3Lyk-7" value="学校意见箱" style="rounded=0;whiteSpace=wrap;html=1;fillColor=#e1d5e7;strokeColor=#9673a6;fontFamily=Times New Roman;fontStyle=1;fontSize=17;" vertex="1" parent="1">
          <mxGeometry x="354" y="290" width="120" height="60" as="geometry" />
        </mxCell>
        <mxCell id="CQMrIme-uf8Fiy_-3Lyk-8" value="标题" style="ellipse;whiteSpace=wrap;html=1;fillColor=#e1d5e7;strokeColor=#9673a6;fontSize=21;" vertex="1" parent="1">
          <mxGeometry x="80" y="280" width="120" height="80" as="geometry" />
        </mxCell>
        <mxCell id="CQMrIme-uf8Fiy_-3Lyk-9" style="rounded=0;orthogonalLoop=1;jettySize=auto;html=1;endArrow=none;endFill=0;fillColor=#ffe6cc;strokeColor=#d79b00;strokeWidth=3;exitX=0.375;exitY=0.017;exitDx=0;exitDy=0;exitPerimeter=0;" edge="1" parent="1" source="CQMrIme-uf8Fiy_-3Lyk-7" target="CQMrIme-uf8Fiy_-3Lyk-10">
          <mxGeometry relative="1" as="geometry">
            <mxPoint x="344" y="270" as="sourcePoint" />
          </mxGeometry>
        </mxCell>
        <mxCell id="CQMrIme-uf8Fiy_-3Lyk-10" value="封面图" style="ellipse;whiteSpace=wrap;html=1;fillColor=#e1d5e7;strokeColor=#9673a6;fontSize=21;" vertex="1" parent="1">
          <mxGeometry x="150" y="170" width="120" height="80" as="geometry" />
        </mxCell>
        <mxCell id="CQMrIme-uf8Fiy_-3Lyk-11" style="rounded=0;orthogonalLoop=1;jettySize=auto;html=1;endArrow=none;endFill=0;fillColor=#ffe6cc;strokeColor=#d79b00;strokeWidth=3;" edge="1" parent="1" source="CQMrIme-uf8Fiy_-3Lyk-7" target="CQMrIme-uf8Fiy_-3Lyk-12">
          <mxGeometry relative="1" as="geometry">
            <mxPoint x="428" y="293" as="sourcePoint" />
          </mxGeometry>
        </mxCell>
        <mxCell id="CQMrIme-uf8Fiy_-3Lyk-12" value="发表时间" style="ellipse;whiteSpace=wrap;html=1;fillColor=#e1d5e7;strokeColor=#9673a6;fontSize=21;" vertex="1" parent="1">
          <mxGeometry x="440" y="130" width="120" height="80" as="geometry" />
        </mxCell>
        <mxCell id="CQMrIme-uf8Fiy_-3Lyk-13" style="edgeStyle=none;shape=connector;rounded=0;orthogonalLoop=1;jettySize=auto;html=1;entryX=0.442;entryY=0;entryDx=0;entryDy=0;entryPerimeter=0;labelBackgroundColor=default;strokeColor=#d79b00;strokeWidth=3;fontFamily=Helvetica;fontSize=11;fontColor=default;endArrow=none;endFill=0;fillColor=#ffe6cc;" edge="1" parent="1" source="CQMrIme-uf8Fiy_-3Lyk-14" target="CQMrIme-uf8Fiy_-3Lyk-7">
          <mxGeometry relative="1" as="geometry" />
        </mxCell>
        <mxCell id="CQMrIme-uf8Fiy_-3Lyk-14" value="发表内容" style="ellipse;whiteSpace=wrap;html=1;fillColor=#e1d5e7;strokeColor=#9673a6;fontSize=21;" vertex="1" parent="1">
          <mxGeometry x="294" y="120" width="120" height="80" as="geometry" />
        </mxCell>
        <mxCell id="CQMrIme-uf8Fiy_-3Lyk-15" value="学号" style="ellipse;whiteSpace=wrap;html=1;fillColor=#e1d5e7;strokeColor=#9673a6;fontSize=21;" vertex="1" parent="1">
          <mxGeometry x="630" y="290" width="120" height="80" as="geometry" />
        </mxCell>
        <mxCell id="CQMrIme-uf8Fiy_-3Lyk-16" value="审核" style="ellipse;whiteSpace=wrap;html=1;fillColor=#e1d5e7;strokeColor=#9673a6;fontSize=21;" vertex="1" parent="1">
          <mxGeometry x="160" y="400" width="120" height="80" as="geometry" />
        </mxCell>
        <mxCell id="CQMrIme-uf8Fiy_-3Lyk-17" value="学生姓名" style="ellipse;whiteSpace=wrap;html=1;fillColor=#e1d5e7;strokeColor=#9673a6;fontSize=21;" vertex="1" parent="1">
          <mxGeometry x="610" y="380" width="120" height="80" as="geometry" />
        </mxCell>
        <mxCell id="CQMrIme-uf8Fiy_-3Lyk-18" value="审核状态" style="ellipse;whiteSpace=wrap;html=1;fillColor=#e1d5e7;strokeColor=#9673a6;fontSize=21;" vertex="1" parent="1">
          <mxGeometry x="490" y="450" width="120" height="80" as="geometry" />
        </mxCell>
        <mxCell id="CQMrIme-uf8Fiy_-3Lyk-19" value="审核回复" style="ellipse;whiteSpace=wrap;html=1;fillColor=#e1d5e7;strokeColor=#9673a6;fontSize=21;" vertex="1" parent="1">
          <mxGeometry x="330" y="460" width="120" height="80" as="geometry" />
        </mxCell>
      </root>
    </mxGraphModel>
  </diagram>
</mxfile>
